<svg height='100px' width='100px'  fill="#ffffff" xmlns:dc="http://purl.org/dc/elements/1.1/" xmlns:cc="http://creativecommons.org/ns#" xmlns:rdf="http://www.w3.org/1999/02/22-rdf-syntax-ns#" xmlns:svg="http://www.w3.org/2000/svg" xmlns="http://www.w3.org/2000/svg" xmlns:sodipodi="http://sodipodi.sourceforge.net/DTD/sodipodi-0.dtd" xmlns:inkscape="http://www.inkscape.org/namespaces/inkscape" version="1.1" x="0px" y="0px" viewBox="0 0 100 100"><g transform="translate(0,-952.36218)"><path style="text-indent:0;text-transform:none;direction:ltr;block-progression:tb;baseline-shift:baseline;color:#000000;enable-background:accumulate;" d="m 16.999999,965.86218 c -7.5850605,0.5462 -13.8761705,7.1328 -14.0000005,14.0013 l 0,16.0014 c 0,7.11132 5.66671,14.00132 13.0000005,14.00132 l 3.25,0 c 0.58497,3.1993 0.61102,6.4448 -0.21875,10.5947 -0.1699,0.8093 0.22727,1.7019 0.9375,2.1252 0.71023,0.4235 1.68149,0.3469 2.3125,-0.1876 4.66858,-3.8907 8.28169,-6.788 10.71875,-10.5322 0.572,7.5383 7.188519,13.8772 14,14.0013 l 18.84375,0 c 2.374709,4.7952 6.405879,7.9743 11.875,12.5323 0.631,0.5344 1.60644,0.6151 2.31666,0.1917 0.71022,-0.4234 1.10321,-1.32 0.93334,-2.1292 -0.82977,-4.1498 -0.80372,-7.3953 -0.21875,-10.5948 l 3.25,0 c 7.33329,0 13.000002,-6.8899 13.000002,-14.0013 l 0,-16.00142 c -0.55762,-7.5956 -7.150993,-13.8797 -14.000002,-14.0012 l -16,0 0,-2.0002 c -0.56844,-7.565 -7.16363,-13.8791 -14,-14.0013 z m 0,4.0004 36,0 c 5.21001,0.5128 9.90228,5.0201 10,10.0009 l 0,2.0002 -16,0 c -7.55861,0.5578 -13.875341,7.1596 -14,14.0012 l 0,10.00092 c -0.787491,0 -1.54841,0.5201 -1.843751,1.2501 -1.302419,3.2564 -4.061509,5.8607 -7.625,8.907 0.19048,-3.0186 0.0966,-5.895 -0.59375,-8.657 -0.219809,-0.8511 -1.05843,-1.5005 -1.9375,-1.5001 l -4.999999,0 c -4.666711,0 -9.0000005,-5.1119 -9.0000005,-10.00092 l 0,-16.0014 c 0.496,-5.2466 5.0203705,-9.9048 9.9999995,-10.0009 z m 30,16.0014 36,0 c 5.241699,0.4966 9.903842,5.0053 10.000002,10.0009 l 0,16.00142 c 0,4.889 -4.333293,10.001 -9.000002,10.001 l -5,0 c -0.879041,-4e-4 -1.717651,0.6489 -1.9375,1.5001 -0.69037,2.762 -0.78423,5.6384 -0.59375,8.657 -3.56349,-3.0464 -6.32258,-5.6507 -7.625,-8.907 -0.29534,-0.7301 -1.05627,-1.246 -1.84375,-1.2501 l -20,0 c -5.187651,-0.5273 -9.9028,-5.0489 -10,-10.001 l 0,-16.00142 c 0.51294,-5.2107 5.019899,-9.9035 10,-10.0009 z m 6,15.00142 c -1.65685,0 -3,1.3432 -3,3.0003 0,1.657 1.34315,3.0002 3,3.0002 1.65685,0 3,-1.3432 3,-3.0002 0,-1.6571 -1.34315,-3.0003 -3,-3.0003 z m 12,0 c -1.656851,0 -3,1.3432 -3,3.0003 0,1.657 1.343149,3.0002 3,3.0002 1.65685,0 3,-1.3432 3,-3.0002 0,-1.6571 -1.34315,-3.0003 -3,-3.0003 z m 12,0 c -1.656851,0 -3,1.3432 -3,3.0003 0,1.657 1.343149,3.0002 3,3.0002 1.65685,0 3,-1.3432 3,-3.0002 0,-1.6571 -1.34315,-3.0003 -3,-3.0003 z" fill="#ffffff" fill-opacity="1" stroke="none" marker="none" visibility="visible" display="inline" overflow="visible"></path></g></svg>