<?xml version="1.0" encoding="utf-8"?>
<!-- Generator: Adobe Illustrator 25.2.1, SVG Export Plug-In . SVG Version: 6.00 Build 0)  -->
<svg version="1.1" id="Layer_1" xmlns="http://www.w3.org/2000/svg" xmlns:xlink="http://www.w3.org/1999/xlink" x="0px" y="0px" height="16px" width="16px"
	 viewBox="0 0 176.2 173.9" style="enable-background:new 0 0 176.2 173.9;" xml:space="preserve">
<style type="text/css">
	.st0{fill:#604894;}
	.st1{fill:#2079B5;}
	.st2{fill:#A9306F;}
	.st3{fill:#F58220;}
	.st4{fill:#3E9A3C;}
</style>
<g id="_x23_ffffffff">
</g>
<g id="_x23_604894ff">
	<path class="st0" d="M98.9,3.7c9.6-1.3,19.3-0.6,28.9-0.7c5.1-0.1,10,3.6,10.8,8.7c1.5,6.4-4.3,13.1-10.8,12.6
		c-13.3-0.7-27.2-1.4-39.7,3.8C78.7,32,72.9,41.5,71.2,51.3c-1.6,5.6-0.4,13.2-6.4,16.4c-6.5,4.4-16.4-0.9-16.2-8.8
		c1.3-14.5,5.7-29.6,16.3-40.2C73.9,9.7,86.5,5.2,98.9,3.7z"/>
</g>
<g id="_x23_2079b5ff">
	<path class="st1" d="M29.9,10.3C35.4,8.4,42,12,43.4,17.7c1.4,4.9-1.7,9.4-2.9,13.9c-3.8,11.6-7.7,24.3-4.3,36.4
		c3.1,10.7,13.2,17.1,22.9,21.2c5.1,1.6,8.5,7.2,7.2,12.5c-1.1,5.9-7.9,9.9-13.6,7.8c-12.6-5.3-24.9-13-32.1-25
		c-6.6-10.8-8-24.2-6-36.6c1.5-10.6,5-20.8,8.4-30.9C24,13.8,26.7,11.3,29.9,10.3z"/>
</g>
<g id="_x23_a9306fff">
	<path class="st2" d="M102.8,37.1c15-2.8,31.7-0.9,44,8.7C160,56,166.9,72,171.7,87.6c1.3,4.8,4.5,9.8,2.5,14.9
		c-2,5.9-9.6,8.9-15,5.8c-2.8-1.4-4.7-4.1-5.5-7.1c-3.1-11.2-6.7-22.6-13.5-32.1c-3.7-5.2-9.1-9.3-15.3-11c-7.5-2-15.4-0.9-22.9,0.7
		c-5.1,1.5-11.2-1.4-12.9-6.5c-1.7-4.2-0.2-9.2,3.2-12C95.3,37.9,99.2,37.8,102.8,37.1z"/>
</g>
<g id="_x23_f58220ff">
	<path class="st3" d="M117.4,73.1c4.3-1.3,9.4,0.1,11.9,3.9c7.6,12.7,13.2,27.6,10.6,42.7c-2.5,15.7-13.5,28.4-25.5,38
		c-5,3.9-10.1,7.7-15.2,11.3c-4.4,3.4-11.5,2.7-14.9-1.7c-3.8-4.4-2.9-12,1.9-15.3c11.7-8.1,24.7-16.3,31-29.6
		c5.2-11.2,0.4-23.7-5.6-33.6C107.9,83.3,111,74.9,117.4,73.1z"/>
</g>
<g id="_x23_3e9a3cff">
	<path class="st4" d="M7.1,103.6c3.5-1.5,7.9-1.1,10.9,1.3c10.3,7.8,21.2,15.8,34,18.9c9.5,2.3,19.4-1.6,26.3-8.1
		c2.8-2.4,5.2-5.2,7.7-8c3.9-4.6,11.7-4.4,15.6,0c3.5,3.7,3.8,10.2,0.4,14.1c-8,8.9-17.2,17.2-28.7,21.1
		c-12.5,4.6-26.6,2.8-38.6-2.6c-10.6-4.6-19.9-11.3-29.2-18c-3-2.1-4.7-5.7-5.1-9.2C1.3,109.2,3.2,105.1,7.1,103.6z"/>
</g>
</svg>
